<svg xmlns="http://www.w3.org/2000/svg" viewBox="0 0 200 240" fill="none">
  <!-- Body silhouette -->
  <ellipse cx="100" cy="235" rx="55" ry="18" fill="#a78bfa" opacity="0.18"/>
  <!-- Legs -->
  <rect x="82" y="170" width="14" height="60" rx="7" fill="#c4b5fd"/>
  <rect x="104" y="170" width="14" height="60" rx="7" fill="#c4b5fd"/>
  <!-- Torso -->
  <rect x="68" y="100" width="64" height="78" rx="20" fill="#a78bfa"/>
  <!-- Arms -->
  <rect x="48" y="108" width="14" height="55" rx="7" fill="#c4b5fd" transform="rotate(-8 55 108)"/>
  <rect x="138" y="108" width="14" height="55" rx="7" fill="#c4b5fd" transform="rotate(8 145 108)"/>
  <!-- Neck -->
  <rect x="90" y="82" width="20" height="24" rx="10" fill="#e9d5ff"/>
  <!-- Head -->
  <circle cx="100" cy="62" r="34" fill="#e9d5ff"/>
  <!-- Hair -->
  <path d="M66 55c0-22 15-38 34-38s34 16 34 38c0 4-1 7-2 10 2-6 3-13 3-20C135 28 119 12 100 12S65 28 65 47c0 7 1 14 3 20-1-3-2-7-2-12z" fill="#7c3aed"/>
  <!-- Eyes -->
  <circle cx="87" cy="58" r="4" fill="#4c1d95"/>
  <circle cx="113" cy="58" r="4" fill="#4c1d95"/>
  <circle cx="89" cy="56.5" r="1.5" fill="white"/>
  <circle cx="115" cy="56.5" r="1.5" fill="white"/>
  <!-- Smile -->
  <path d="M90 72c4 5 16 5 20 0" stroke="#7c3aed" stroke-width="2" stroke-linecap="round" fill="none"/>
  <!-- Star accessory -->
  <polygon points="100,14 103,22 112,22 105,27 108,35 100,30 92,35 95,27 88,22 97,22" fill="#fbbf24" opacity="0.9"/>
</svg>