<svg xmlns="http://www.w3.org/2000/svg" viewBox="0 0 200 240" fill="none">
  <ellipse cx="100" cy="235" rx="55" ry="18" fill="#fbbf24" opacity="0.18"/>
  <!-- Legs -->
  <rect x="82" y="170" width="14" height="60" rx="7" fill="#fde68a"/>
  <rect x="104" y="170" width="14" height="60" rx="7" fill="#fde68a"/>
  <!-- Torso -->
  <rect x="68" y="100" width="64" height="78" rx="20" fill="#fbbf24"/>
  <!-- Arms - holding mic -->
  <rect x="48" y="105" width="14" height="55" rx="7" fill="#fde68a" transform="rotate(-5 55 105)"/>
  <rect x="132" y="95" width="14" height="50" rx="7" fill="#fde68a" transform="rotate(30 139 95)"/>
  <!-- Microphone -->
  <rect x="152" y="72" width="8" height="28" rx="4" fill="#92400e"/>
  <circle cx="156" cy="68" r="8" fill="#78350f"/>
  <rect x="153" y="60" width="6" height="4" rx="1" fill="#92400e" opacity="0.5"/>
  <!-- Neck -->
  <rect x="90" y="82" width="20" height="24" rx="10" fill="#fef3c7"/>
  <!-- Head -->
  <circle cx="100" cy="62" r="34" fill="#fef3c7"/>
  <!-- Hair -->
  <path d="M66 54c0-22 15-38 34-38s34 16 34 38c-2-16-16-28-34-28S68 38 66 54z" fill="#92400e"/>
  <!-- Headphones -->
  <path d="M66 58c-4 0-8 4-8 12s4 14 8 14" stroke="#78350f" stroke-width="5" stroke-linecap="round" fill="none"/>
  <path d="M134 58c4 0 8 4 8 12s-4 14-8 14" stroke="#78350f" stroke-width="5" stroke-linecap="round" fill="none"/>
  <path d="M66 56c0-20 15-34 34-34s34 14 34 34" stroke="#78350f" stroke-width="4" fill="none"/>
  <!-- Eyes -->
  <circle cx="87" cy="60" r="4" fill="#78350f"/>
  <circle cx="113" cy="60" r="4" fill="#78350f"/>
  <circle cx="89" cy="58.5" r="1.5" fill="white"/>
  <circle cx="115" cy="58.5" r="1.5" fill="white"/>
  <!-- Singing mouth -->
  <ellipse cx="100" cy="76" rx="6" ry="5" fill="#92400e"/>
</svg>